<?xml version="1.0" standalone="no"?><!DOCTYPE svg PUBLIC "-//W3C//DTD SVG 1.1//EN" "http://www.w3.org/Graphics/SVG/1.1/DTD/svg11.dtd"><svg t="1656401851958" class="icon" viewBox="0 0 1024 1024" version="1.1" xmlns="http://www.w3.org/2000/svg" p-id="5238" xmlns:xlink="http://www.w3.org/1999/xlink" width="200" height="200"><defs><style type="text/css">@font-face { font-family: feedback-iconfont; src: url("//at.alicdn.com/t/font_1031158_u69w8yhxdu.woff2?t=1630033759944") format("woff2"), url("//at.alicdn.com/t/font_1031158_u69w8yhxdu.woff?t=1630033759944") format("woff"), url("//at.alicdn.com/t/font_1031158_u69w8yhxdu.ttf?t=1630033759944") format("truetype"); }
</style></defs><path d="M746.656 373.344h-39.616V294.08A198.176 198.176 0 0 0 508.96 96a198.176 198.176 0 0 0-198.08 198.08v79.264H271.2A79.456 79.456 0 0 0 192 452.576v396.16A79.456 79.456 0 0 0 271.232 928h475.424a79.456 79.456 0 0 0 79.264-79.232V452.576a79.456 79.456 0 0 0-79.264-79.232zM508.96 729.92a79.456 79.456 0 0 1-79.232-79.264 79.456 79.456 0 0 1 79.232-79.232 79.456 79.456 0 0 1 79.232 79.232 79.456 79.456 0 0 1-79.232 79.264z m122.816-356.576h-245.632V294.08a122.912 122.912 0 0 1 122.816-122.816 122.912 122.912 0 0 1 122.816 122.816v79.264z" p-id="5239" fill="#bfbfbf"></path></svg>